<svg width="51" height="50" viewBox="0 0 51 50" fill="none" xmlns="http://www.w3.org/2000/svg">
<g clip-path="url(#clip0_3715_4929)">
<path d="M32.5521 9.56717C24.0405 7.04209 14.8296 9.38165 8.55469 15.6625" stroke="#479CEC" stroke-width="1.72917" stroke-linecap="round" stroke-linejoin="round"/>
<path d="M26.5173 17.2402C21.6432 16.997 16.8943 18.8304 13.4482 22.2859" stroke="#479CEC" stroke-width="1.72917" stroke-linecap="round" stroke-linejoin="round"/>
<path d="M22.2158 38.8343C22.2158 40.7443 23.7642 42.2926 25.6742 42.2926C27.5841 42.2926 29.1325 40.7443 29.1325 38.8343C29.1325 36.9243 27.5841 35.376 25.6742 35.376C23.7642 35.376 22.2158 36.9243 22.2158 38.8343Z" stroke="#479CEC" stroke-width="1.72917" stroke-linecap="round" stroke-linejoin="round"/>
<path d="M42.791 16.5277C42.0257 15.7603 41.2094 15.0457 40.3477 14.3887" stroke="#479CEC" stroke-width="1.72917" stroke-linecap="round" stroke-linejoin="round"/>
<path d="M37.9005 22.2855C36.9689 21.3531 35.9346 20.5294 34.8174 19.8301" stroke="#479CEC" stroke-width="1.72917" stroke-linecap="round" stroke-linejoin="round"/>
<path d="M33.0123 29.7671C31.695 28.4463 30.0446 27.507 28.2363 27.0488" stroke="#479CEC" stroke-width="1.72917" stroke-linecap="round" stroke-linejoin="round"/>
<path d="M42.1032 5.97949L9.24902 44.0212" stroke="#479CEC" stroke-width="1.72917" stroke-linecap="round" stroke-linejoin="round"/>
</g>
<defs>
<clipPath id="clip0_3715_4929">
<rect width="50" height="50" fill="white" transform="translate(0.5)"/>
</clipPath>
</defs>
</svg>
