<svg width="51" height="50" viewBox="0 0 51 50" fill="none" xmlns="http://www.w3.org/2000/svg">
<g clip-path="url(#clip0_3715_4875)">
<path d="M17.7174 27.5924V11.1654C17.7174 7.82289 15.0078 5.11328 11.6654 5.11328C8.32289 5.11328 5.61328 7.82289 5.61328 11.1654V27.5924" stroke="#479CEC" stroke-width="1.72917" stroke-linecap="round" stroke-linejoin="round"/>
<path d="M5.61328 18.9463H17.7174" stroke="#479CEC" stroke-width="1.72917" stroke-linecap="round" stroke-linejoin="round"/>
<path d="M22.9043 27.5924V5.11328H27.35C28.9225 5.11328 30.4307 5.73797 31.5426 6.84994C32.6546 7.9619 33.2793 9.47004 33.2793 11.0426V20.6585" stroke="#479CEC" stroke-width="1.72917" stroke-linecap="round" stroke-linejoin="round"/>
<path d="M35.0088 44.8838C40.7387 44.8838 45.3838 40.2387 45.3838 34.5088C45.3838 28.7788 40.7387 24.1338 35.0088 24.1338C29.2788 24.1338 24.6338 28.7788 24.6338 34.5088C24.6338 40.2387 29.2788 44.8838 35.0088 44.8838Z" stroke="#479CEC" stroke-width="1.72917" stroke-linecap="round" stroke-linejoin="round"/>
<path d="M28.5244 40.9932L41.4932 28.0244" stroke="#479CEC" stroke-width="1.72917" stroke-linecap="round" stroke-linejoin="round"/>
</g>
<defs>
<clipPath id="clip0_3715_4875">
<rect width="50" height="50" fill="white" transform="translate(0.5)"/>
</clipPath>
</defs>
</svg>
