<svg width="51" height="50" viewBox="0 0 51 50" fill="none" xmlns="http://www.w3.org/2000/svg">
<g clip-path="url(#clip0_3715_4909)">
<path d="M26.5206 4.41057C26.2821 4.39976 26.0409 4.40545 25.798 4.42807L25.7945 4.42982H25.791C24.2533 4.58707 22.8849 5.28447 21.9015 6.4122C21.8593 6.40448 21.8166 6.39981 21.7737 6.3982C21.6931 6.39554 21.6125 6.40378 21.534 6.4227C18.2996 7.15069 15.3776 8.72232 12.9081 10.8931C12.6876 10.7676 12.4597 10.7163 12.2643 10.6937C11.954 10.6577 11.6636 10.6799 11.3719 10.7234C10.7943 10.8095 10.2298 10.985 9.77273 11.1871C9.50564 11.2949 9.23955 11.4296 8.99062 11.6595C8.75601 11.8761 8.55882 12.2484 8.52521 12.6655C8.47548 13.0604 8.56076 13.3067 8.65819 13.5316C8.76822 13.7857 8.91135 14.0402 9.08336 14.319C9.18969 14.4913 9.3234 14.6827 9.44904 14.8684C7.24925 18.0206 5.88589 21.7815 5.79922 25.8773C5.79916 25.8791 5.79927 25.8808 5.79922 25.8826V25.8861C5.56177 33.5401 10.5077 40.0074 17.0356 43.3128C17.1564 43.42 17.3039 43.4926 17.4625 43.5228C20.1727 44.8228 23.1678 45.5694 26.2354 45.5839L26.2844 45.5927C26.3324 45.6001 26.381 45.6036 26.4296 45.6032C29.8764 45.5798 33.1936 44.6986 36.0703 43.2901C36.0727 43.2889 36.075 43.2878 36.0773 43.2866C36.9597 42.8446 37.4075 41.7107 36.9907 40.7391C36.9836 40.7219 36.976 40.705 36.9679 40.6883L36.9119 40.5763C36.2591 38.7652 34.4861 35.0448 34.4676 30.8377C34.461 29.1725 34.7071 27.4645 35.269 25.8406L35.2707 25.8388V25.8353C36.071 23.585 38.4748 20.769 40.4165 18.7457L40.42 18.7422C40.4498 18.7156 40.9103 18.294 41.4926 17.7431C42.7778 20.3095 43.4899 23.2157 43.4172 26.348C43.2592 30.3514 41.9296 34.0215 39.6659 36.9878C39.4629 37.2416 39.4133 37.5854 39.5362 37.8862C39.6591 38.187 39.9353 38.3977 40.2579 38.4368C40.5805 38.4758 40.899 38.3371 41.0901 38.0743C43.5823 34.8088 45.038 30.7724 45.2089 26.4127C45.2089 26.4081 45.2089 26.4034 45.2089 26.3987C45.2941 22.8 44.4354 19.4442 42.8906 16.5271C42.8733 16.4944 42.854 16.4629 42.8328 16.4326C43.4112 15.8408 43.9827 15.2235 44.4233 14.6514C44.6506 14.3562 44.8444 14.0763 44.9937 13.7836C45.1294 13.5176 45.2432 13.2009 45.1721 12.7548C45.1369 12.3575 44.9847 11.966 44.7365 11.7015C44.4622 11.4093 44.1333 11.2167 43.7707 11.0611C43.4078 10.9054 43.0131 10.7571 42.5914 10.6884C42.1697 10.6197 41.7202 10.6306 41.2476 10.7881C41.2068 10.8016 41.1671 10.818 41.1286 10.8371C40.883 10.9606 40.9039 10.9844 40.8347 11.0436C40.7655 11.1028 40.6926 11.1691 40.6107 11.2448C40.447 11.3963 40.2539 11.5823 40.0666 11.7645C39.9083 11.9183 39.8856 11.9434 39.7604 12.0671C37.4054 9.51816 34.4311 7.66291 30.998 6.68165C30.9422 6.66442 30.8847 6.6527 30.8266 6.64666C29.6906 5.33778 28.1685 4.48532 26.5206 4.41057ZM26.4471 6.20224C27.5553 6.25097 28.6135 6.82445 29.4898 7.84343C29.8441 8.31237 30.5263 9.5913 30.7041 10.3437L30.7058 10.3525L30.7076 10.3595C30.7846 10.6605 30.8336 10.8614 30.8336 11.1153V11.1713L30.8406 11.2256C31.0388 12.8388 30.5029 14.3986 29.593 15.4878C28.7883 16.3311 27.8332 16.8639 26.9038 16.9207L26.8775 16.9225L26.8496 16.9242C25.9076 17.0392 24.8173 16.6805 23.9888 15.9952L23.9871 15.9934L23.9853 15.9917C22.7823 15.0112 21.9942 13.5944 21.9277 11.9849V11.9832C21.8601 9.80243 22.6625 8.31244 23.0423 7.83469L23.051 7.82419L23.058 7.81544C23.7569 6.8828 24.7302 6.34221 25.9695 6.21449C26.1294 6.19984 26.2888 6.19528 26.4471 6.20224ZM20.6802 8.50481C20.3373 9.43412 20.092 10.616 20.1378 12.0479V12.0514V12.0549C20.2259 14.2063 21.2861 16.1008 22.8515 17.3774L22.8533 17.3792C24.0185 18.3411 25.5314 18.8762 27.042 18.7002C28.5532 18.5982 29.8883 17.7905 30.9193 16.6985L30.9368 16.6793L30.9525 16.66C32.1803 15.2027 32.863 13.1774 32.6165 11.0541C32.6067 10.5946 32.5179 10.2102 32.445 9.92555C32.3691 9.60619 32.2608 9.28363 32.1371 8.96673C34.5854 9.9293 36.7165 11.4005 38.4761 13.3164C38.2673 13.5015 38.0823 13.6709 37.8043 13.9008C36.9383 14.6166 35.7677 15.5112 34.4659 16.3783C31.8622 18.1127 28.6691 19.6852 26.5696 19.6852C24.2398 19.6852 21.8048 18.8667 19.2122 17.0607L19.2105 17.059C18.2176 16.3601 16.7721 14.9711 15.5781 13.7276C15.0336 13.1604 14.5491 12.6306 14.1487 12.1861C16.0709 10.5094 18.2703 9.24356 20.6802 8.50481ZM12.0193 12.4748C12.327 12.8471 13.127 13.7619 14.2851 14.9681C15.5131 16.2471 16.9602 17.6676 18.1817 18.5269L18.1852 18.5287C21.0044 20.4931 23.8153 21.4769 26.5696 21.4769C29.4725 21.4769 32.7351 19.684 35.4597 17.8691C36.822 16.9616 38.0352 16.0366 38.9468 15.2831C39.4026 14.9063 39.7812 14.5725 40.0718 14.3015C40.3061 14.083 40.4557 13.9403 40.6072 13.7468L40.6125 13.7416C40.6176 13.7365 40.9553 13.3993 41.3159 13.0487C41.4975 12.8721 41.683 12.6936 41.8268 12.5606C41.8543 12.5351 41.8694 12.5227 41.8932 12.5011C42.0138 12.4969 42.6677 12.5376 43.0638 12.7075C43.2592 12.7914 43.3687 12.8731 43.412 12.914C43.4105 12.9305 43.4171 12.9325 43.398 12.97C43.3321 13.0991 43.1917 13.3145 43.0043 13.5579C42.6294 14.0446 42.0698 14.6544 41.4996 15.2358C40.3592 16.3985 39.1778 17.4526 39.1778 17.4526C39.1602 17.4683 39.1433 17.4846 39.127 17.5016C37.1342 19.5779 34.5856 22.4097 33.5805 25.2422C33.58 25.2445 33.5794 25.2469 33.5788 25.2492C32.9417 27.0882 32.6684 28.9968 32.676 30.8464C32.6968 35.5824 34.7066 39.7288 35.2427 41.229C35.2546 41.2636 35.2687 41.2975 35.2847 41.3305L35.3442 41.4459C35.4175 41.6182 35.3751 41.6326 35.276 41.6821V41.6839C32.6382 42.9742 29.5922 43.7773 26.4629 43.8062H26.4611C26.4165 43.7994 26.3715 43.7959 26.3264 43.7957C23.6005 43.7957 20.9322 43.1128 18.4826 41.9761C18.4191 41.3543 18.3426 40.5076 18.3426 39.7715C18.3422 39.7616 18.3416 39.7517 18.3409 39.7418C18.181 34.9423 19.0331 31.8035 19.6111 29.4922C19.6117 29.4892 19.6123 29.4863 19.6129 29.4834C19.8604 28.452 20.0576 27.603 20.1168 26.8099C20.176 26.0174 20.0756 25.2419 19.6794 24.5616C18.5622 22.609 16.1445 20.2061 14.2012 18.0195C14.1988 18.0166 14.1965 18.0137 14.1942 18.0108C13.8268 17.6069 12.7379 16.314 11.8024 15.0783C11.3346 14.4605 10.8993 13.8499 10.6091 13.3794C10.4848 13.1779 10.4052 13.0234 10.3466 12.9C10.3874 12.8772 10.394 12.866 10.4534 12.8423C10.4639 12.8378 10.4744 12.8331 10.4848 12.8283C10.7636 12.7041 11.256 12.5525 11.6361 12.4958C11.8081 12.4702 11.9428 12.4697 12.0193 12.4748ZM10.5776 16.4186C11.492 17.6089 12.4469 18.7535 12.8679 19.2163C14.8584 21.4556 17.2756 23.9651 18.1274 25.4557C18.1286 25.4574 18.1298 25.4592 18.1309 25.4609C18.3081 25.7648 18.3737 26.0965 18.3304 26.6769C18.287 27.2574 18.1146 28.0469 17.8702 29.0652C17.3004 31.3432 16.3878 34.7603 16.5527 39.7855C16.5531 40.1816 16.5771 40.6105 16.6 41.0278C11.2276 37.8339 7.38816 32.3044 7.58913 25.9333C7.58915 25.9304 7.58915 25.9275 7.58913 25.9246C7.66174 22.419 8.76787 19.1962 10.5776 16.4186Z" fill="#479CEC"/>
</g>
<defs>
<clipPath id="clip0_3715_4909">
<rect width="50" height="50" fill="white" transform="translate(0.5)"/>
</clipPath>
</defs>
</svg>
