<svg width="50" height="50" viewBox="0 0 50 50" fill="none" xmlns="http://www.w3.org/2000/svg">
<g clip-path="url(#clip0_3715_4914)">
<path d="M21.6675 4.16602C16.6577 4.16602 13.7053 6.89714 12.7613 9.29622C10.1766 9.778 7.84589 11.5098 6.6675 14.2181C5.45656 16.998 5.50865 20.7383 7.42271 24.9473C6.33873 26.36 5.71047 28.1797 6.01646 30.0254C6.31594 31.8483 7.57896 33.5475 9.76646 34.5566C8.88104 36.6009 9.1675 38.5964 10.2873 39.9994C11.4494 41.4577 13.3407 42.2585 15.3133 42.3952C15.896 43.9219 16.9767 44.9342 18.1519 45.3639C19.48 45.849 20.8309 45.8327 21.6675 45.8327C23.0379 45.8327 24.2424 45.1784 25.0008 44.166C25.7593 45.1751 26.967 45.8229 28.3342 45.8327C29.2652 45.8392 30.6161 45.6048 31.9279 44.8952C33.0835 44.2702 34.1122 43.1536 34.6883 41.6139C36.5568 41.5488 38.4058 41.1582 39.6362 39.9733C40.3101 39.3223 40.7463 38.4238 40.8081 37.3691C40.857 36.5358 40.6161 35.5918 40.2092 34.5827C42.4227 33.5801 43.7378 31.8874 44.0633 30.0514C44.3921 28.209 43.728 26.3633 42.579 24.9473C44.493 20.7383 44.5451 16.998 43.3342 14.2181C42.1558 11.5098 39.8251 9.778 37.2404 9.29622C36.2964 6.89714 33.3439 4.16602 28.3342 4.16602C27.0972 4.16602 25.9318 4.48503 25.1831 5.44206C25.1148 5.52995 25.0594 5.63411 25.0008 5.72852C24.9422 5.63411 24.8869 5.52995 24.8185 5.44206C24.0698 4.48503 22.9045 4.16602 21.6675 4.16602ZM21.6675 5.83268C22.6701 5.83268 23.1551 5.9987 23.5165 6.45768C23.8778 6.91667 24.1675 7.91276 24.1675 9.71289V41.666C24.1675 43.1862 23.1584 44.166 21.6675 44.166C20.8374 44.166 19.6883 44.153 18.7248 43.8014C17.7613 43.4499 16.9898 42.8574 16.6415 41.4577L16.4852 40.8327H15.8342C14.1447 40.8327 12.4813 40.0742 11.5894 38.9577C10.6975 37.8411 10.4305 36.4284 11.5373 34.5827L12.0842 33.6973L11.0946 33.3848C8.83547 32.6328 7.90448 31.2559 7.65709 29.765C7.4162 28.3001 7.93703 26.6823 8.88104 25.6243C8.90058 25.6081 8.91685 25.5918 8.93313 25.5723L8.95917 25.5462C8.95917 25.5462 10.9839 23.3327 13.3342 23.3327C16.3029 23.3327 17.7613 24.765 17.7613 24.765C17.9663 25.0091 18.2951 25.1133 18.6011 25.0352C18.9103 24.957 19.148 24.7064 19.2131 24.3971C19.2782 24.0846 19.1577 23.7624 18.9071 23.5671C18.9071 23.5671 16.8726 21.666 13.3342 21.666C11.2541 21.666 9.56789 22.75 8.59459 23.5671C7.13951 20.0026 7.26646 17.0469 8.20396 14.8952C9.23261 12.5286 11.2346 11.0964 13.4123 10.8327L13.9852 10.7546L14.1154 10.2337C14.5646 8.66471 16.993 5.83268 21.6675 5.83268ZM28.3342 5.83268C33.0086 5.83268 35.437 8.66471 35.8863 10.2337L36.0165 10.7546L36.5894 10.8327C38.7671 11.0964 40.7691 12.5286 41.7977 14.8952C42.7189 17.0111 42.8622 19.8984 41.4852 23.3848C41.2411 23.4987 41.0685 23.7201 41.0165 23.9837C41.0165 23.9837 40.8472 24.7585 39.9227 25.6504C38.9982 26.5423 37.3283 27.4993 34.1675 27.4993C33.868 27.4961 33.5881 27.6523 33.4351 27.9128C33.2853 28.1732 33.2853 28.4922 33.4351 28.7526C33.5881 29.013 33.868 29.1693 34.1675 29.166C37.6734 29.166 39.8348 28.0397 41.0685 26.8483C41.2801 26.6465 41.4559 26.4512 41.6154 26.2493C42.3055 27.252 42.6376 28.5313 42.4227 29.7389C42.159 31.2233 41.1695 32.6296 38.9071 33.3848L37.9956 33.6712L38.4123 34.5306C38.9917 35.6927 39.1805 36.6009 39.1415 37.265C39.1024 37.929 38.8713 38.3848 38.4644 38.7754C37.6669 39.5436 36.0392 39.9831 34.2717 39.9994C33.204 39.6185 32.3739 39.0716 31.7977 38.3327C31.1955 37.5579 30.8342 36.526 30.8342 34.9993C30.8407 34.7422 30.7267 34.498 30.5282 34.3353C30.3329 34.1725 30.0692 34.1107 29.8185 34.166C29.4312 34.2539 29.1577 34.6022 29.1675 34.9993C29.1675 36.806 29.6395 38.2741 30.4956 39.3744C31.1825 40.2565 32.0939 40.8587 33.1258 41.3014C32.6961 42.3138 31.9572 42.9844 31.1206 43.4369C30.1083 43.9837 28.9461 44.1693 28.3342 44.166C26.8368 44.1562 25.8342 43.1862 25.8342 41.666V9.71289C25.8342 7.91276 26.1239 6.91667 26.4852 6.45768C26.8465 5.9987 27.3316 5.83268 28.3342 5.83268ZM19.9227 12.4733C19.8869 12.4798 19.8511 12.4896 19.8185 12.4993C19.4312 12.5872 19.1577 12.9355 19.1675 13.3327C19.1675 13.4727 19.0243 14.153 18.4644 14.7129C17.9045 15.2728 16.9182 15.8327 15.0008 15.8327C14.7014 15.8294 14.4214 15.9857 14.2684 16.2461C14.1187 16.5065 14.1187 16.8255 14.2684 17.0859C14.4214 17.3464 14.7014 17.5026 15.0008 17.4993C17.2502 17.4993 18.7671 16.8092 19.6623 15.9108C20.5575 15.0124 20.8342 14.026 20.8342 13.3327C20.8439 13.0918 20.7463 12.8607 20.5738 12.6979C20.398 12.5319 20.1603 12.4505 19.9227 12.4733ZM31.5894 14.14C31.5536 14.1465 31.5178 14.1562 31.4852 14.166C31.0978 14.2539 30.8244 14.6022 30.8342 14.9993C30.8342 16.1094 31.329 17.5254 32.5269 18.7233C33.7248 19.9212 35.6486 20.8327 38.3342 20.8327C38.6336 20.8359 38.9136 20.6797 39.0666 20.4193C39.2163 20.1589 39.2163 19.8398 39.0666 19.5794C38.9136 19.319 38.6336 19.1628 38.3342 19.166C36.0197 19.166 34.6102 18.4108 33.7248 17.5254C32.8394 16.64 32.5008 15.556 32.5008 14.9993C32.5106 14.7585 32.4129 14.5273 32.2404 14.3646C32.0646 14.1986 31.827 14.1172 31.5894 14.14ZM13.1258 29.166C12.6669 29.179 12.3055 29.5664 12.3185 30.0254C12.3316 30.4844 12.7189 30.8457 13.1779 30.8327C15.4175 31.2038 16.381 32.3984 16.9279 33.6712C17.4748 34.944 17.5008 36.2494 17.5008 36.666C17.4976 36.9655 17.6538 37.2454 17.9142 37.3984C18.1747 37.5482 18.4937 37.5482 18.7541 37.3984C19.0145 37.2454 19.1708 36.9655 19.1675 36.666C19.1675 36.2526 19.1675 34.638 18.4644 32.9941C17.7613 31.3503 16.2346 29.6283 13.4644 29.166C13.3765 29.153 13.2919 29.153 13.204 29.166C13.1779 29.166 13.1519 29.166 13.1258 29.166Z" fill="#479CEC"/>
</g>
<defs>
<clipPath id="clip0_3715_4914">
<rect width="50" height="50" fill="white"/>
</clipPath>
</defs>
</svg>
