<svg width="50" height="50" viewBox="0 0 50 50" fill="none" xmlns="http://www.w3.org/2000/svg">
<g clip-path="url(#clip0_3715_4924)">
<path d="M25.5134 4.39648C21.9965 4.39648 19.1025 7.20296 19.1025 10.6673C19.1025 12.221 19.6974 13.4213 20.6423 14.7546C21.4121 15.8429 21.3701 16.4307 21.2861 16.6022C21.2022 16.7737 20.8872 16.9941 20.0544 16.9382C17.8778 16.7912 10.9001 15.9863 10.9001 15.9863V16.0143C10.0567 15.8988 9.21339 16.2593 8.77247 16.8542C8.34555 17.4316 8.18458 18.1104 8.1006 18.8138V18.8698C8.0971 18.8908 8.0761 18.9048 8.0726 18.9258H8.1006C8.0901 18.9643 7.71217 20.707 7.14877 28.1081C7.14177 28.2236 7.13128 28.1326 7.12078 28.248H7.14877C7.10328 28.5945 7.14177 28.9059 7.14877 28.9479C7.26075 29.5183 7.57569 30.0852 8.1006 30.3477C8.6255 30.6101 9.1574 30.5401 9.61231 30.4036C10.5256 30.1307 11.3865 29.5218 12.2718 28.8919C13.3181 28.1501 14.3014 27.6882 15.4352 27.6882C18.0073 27.6882 20.0544 29.6933 20.0544 32.1673C20.0544 34.6414 18.0073 36.6465 15.4352 36.6465C14.158 36.6465 13.4336 36.3175 12.2158 35.3587C11.537 34.8268 10.7426 34.2494 9.89226 33.931C9.46534 33.7735 9.01043 33.679 8.49252 33.791C7.97462 33.903 7.47421 34.3299 7.26075 34.8548C7.04029 35.3937 7.05079 35.7716 7.12078 36.2266C7.12428 36.2721 7.11728 36.2371 7.12078 36.2826C7.64918 41.766 7.91513 42.3014 8.1006 43.1133C8.23357 43.6942 8.47153 44.2856 8.91244 44.765C9.35336 45.2444 10.0497 45.6048 10.8161 45.6048H39.5107C40.5081 45.6048 41.4109 45.2759 42.0303 44.653C42.6497 44.0301 42.9261 43.1658 42.9261 42.2454V19.0658C42.9261 18.2049 42.6077 17.4701 42.1143 16.9661C41.6209 16.4622 41.012 16.1858 40.4346 16.0143C40.3261 15.9828 40.2106 15.9758 40.0986 15.9863C40.0986 15.9863 33.3554 16.6547 30.9164 16.9382C30.206 17.0186 29.961 16.8612 29.8525 16.6302C29.7441 16.3993 29.6986 15.7449 30.3565 14.6986C30.8534 13.9077 31.2348 13.3303 31.5042 12.7109C31.7737 12.0916 31.8962 11.4407 31.8962 10.6673C31.8962 7.20296 29.0302 4.39648 25.5134 4.39648ZM25.5134 6.18815C28.0854 6.18815 30.1045 8.19328 30.1045 10.6673C30.1045 11.2622 30.0345 11.5946 29.8525 12.0111C29.6706 12.4275 29.3451 12.9489 28.8447 13.7467C28.0049 15.0835 27.7389 16.3503 28.2289 17.3861C28.7188 18.4219 29.919 18.8663 31.1123 18.7298C33.4289 18.4604 39.6892 17.841 40.0427 17.806C40.3926 17.925 40.7005 18.0404 40.8545 18.1979C41.0295 18.3764 41.1344 18.5723 41.1344 19.0658V42.2454C41.1344 42.8088 40.977 43.1553 40.7425 43.3932C40.5081 43.6312 40.1511 43.8132 39.5107 43.8132H10.8161C10.5676 43.8132 10.4277 43.7502 10.2562 43.5612C10.0847 43.3722 9.91326 43.0503 9.83627 42.7214C9.60532 41.7205 9.44784 41.6296 8.91244 36.0586C8.90545 36.0411 8.89495 36.0201 8.88445 36.0026C8.86695 35.9046 8.95794 35.4147 8.91244 35.5267C8.94394 35.5267 9.06292 35.5302 9.27638 35.6107C9.76279 35.7926 10.4802 36.3001 11.096 36.7865C12.4678 37.8643 13.787 38.4382 15.4352 38.4382C18.9521 38.4382 21.846 35.6317 21.846 32.1673C21.846 28.703 18.9521 25.8965 15.4352 25.8965C13.801 25.8965 12.4258 26.5894 11.236 27.4362C10.3857 28.0416 9.54933 28.563 9.10841 28.696C9.02442 28.7205 8.98243 28.7205 8.94044 28.724C8.93694 28.6995 8.92994 28.6925 8.91244 28.612C8.90195 28.556 8.91244 28.514 8.91244 28.5C8.91594 28.4615 8.91594 28.4265 8.91244 28.388C9.49334 20.6405 9.83627 19.2337 9.83627 19.2337C9.84677 19.1987 9.85727 19.1602 9.86427 19.1217C9.92726 18.5409 10.0707 18.0964 10.2002 17.918C10.3297 17.7395 10.3052 17.722 10.6481 17.778C10.6656 17.778 10.6866 17.778 10.7041 17.778C10.7041 17.778 17.5943 18.5723 19.9424 18.7298C21.1742 18.8138 22.3919 18.4464 22.9098 17.3861C23.4277 16.3258 23.0498 15.066 22.098 13.7188C21.2197 12.48 20.8942 11.8081 20.8942 10.6673C20.8942 8.19328 22.9413 6.18815 25.5134 6.18815Z" fill="#479CEC"/>
</g>
<defs>
<clipPath id="clip0_3715_4924">
<rect width="50" height="50" fill="white"/>
</clipPath>
</defs>
</svg>
