<svg width="30" height="30" viewBox="0 0 30 30" fill="none" xmlns="http://www.w3.org/2000/svg">
<path d="M24.0591 28.7964C22.426 30.3795 20.6429 30.1295 18.9265 29.3796C17.11 28.6131 15.4436 28.5797 13.5271 29.3796C11.1274 30.4128 9.86093 30.1129 8.42778 28.7964C0.295472 20.4141 1.49532 7.64903 10.7275 7.18243C12.9772 7.29908 14.5437 8.4156 15.8602 8.51559C17.8266 8.11564 19.7097 6.96579 21.8094 7.11577C24.3258 7.31574 26.2255 8.31562 27.4754 10.1154C22.276 13.2317 23.5092 20.0808 28.2753 21.9972C27.3254 24.4969 26.0922 26.9799 24.0425 28.813L24.0591 28.7964ZM15.6935 7.08244C15.4436 3.36624 18.4598 0.299962 21.9261 0C22.4093 4.29946 18.0266 7.49905 15.6935 7.08244Z" fill="white"/>
</svg>
