<svg width="1348" height="596" viewBox="0 0 1348 596" fill="none" xmlns="http://www.w3.org/2000/svg">
<g clip-path="url(#clip0_3715_6128)">
<path fill-rule="evenodd" clip-rule="evenodd" d="M1513.82 -144.059C1515.44 -149.338 1512.48 -154.934 1507.2 -156.558C1501.92 -158.182 1496.32 -155.22 1494.7 -149.941C1490.59 -136.574 1484.63 -126.022 1476.22 -113.139C1454.28 -79.5313 1431.03 -46.9912 1403.62 -18.5327C1350.09 37.0318 1273.73 79.9573 1196.5 81.7116C1199.25 73.0497 1201.59 63.9695 1202.83 55.2558C1204.6 42.8878 1204.49 29.2549 1198.32 18.3954C1191.56 6.49437 1179.08 0.424136 1162.09 0.577228C1150.58 0.680942 1137.92 3.75765 1126.73 9.35005C1115.58 14.923 1105.08 23.4085 1098.97 34.9274C1094.18 43.9616 1093.26 52.9679 1095.9 61.3252C1098.43 69.3529 1103.89 75.6734 1109.82 80.4675C1121.55 89.943 1137.7 95.5603 1148.93 97.7319C1155.34 98.9693 1161.75 99.9125 1168.15 100.576C1166.54 104.443 1165.02 107.954 1163.72 110.962L1163.71 110.983L1163.26 112.029L1162.9 112.848C1136.81 173.201 1092.14 237.828 1032.27 264.045C1011.19 273.273 987.571 279.607 967.541 277.862C957.674 277.002 949.008 274.213 941.873 269.158C934.803 264.149 928.651 256.505 924.375 244.929C924.382 244.949 924.379 244.939 924.368 244.896C924.329 244.747 924.186 244.202 923.96 243.034C923.701 241.692 923.419 240.007 923.089 237.974C923.019 237.545 922.948 237.103 922.874 236.65C922.271 232.917 921.539 228.392 920.63 223.965C919.629 219.088 918.296 213.719 916.406 209.257C915.463 207.03 914.194 204.573 912.434 202.432C910.686 200.305 907.866 197.792 903.76 196.912C898.545 195.795 893.338 196.657 889.004 197.947C884.565 199.268 880.18 201.302 876.23 203.42C870.458 206.515 864.633 210.367 860.488 213.109C859.115 214.017 857.927 214.803 856.985 215.399C823.139 236.841 793.543 266.645 766.036 294.345C762.667 297.737 759.33 301.097 756.021 304.407C752.116 308.312 752.116 314.644 756.021 318.549C759.926 322.454 766.258 322.454 770.163 318.549C773.507 315.205 776.848 311.843 780.191 308.479L780.2 308.471C807.942 280.555 835.877 252.447 867.688 232.295C869.147 231.37 870.691 230.349 872.313 229.276C876.316 226.629 880.799 223.664 885.682 221.045C889.005 219.263 892.066 217.903 894.709 217.116C895.961 216.744 896.956 216.549 897.725 216.46C897.774 216.565 897.824 216.676 897.877 216.795C897.914 216.879 897.952 216.966 897.99 217.058C899.085 219.643 900.105 223.439 901.039 227.987C901.856 231.968 902.518 236.059 903.129 239.833L903.131 239.843C903.204 240.294 903.276 240.74 903.348 241.182C903.675 243.195 904 245.156 904.324 246.83C904.615 248.335 905.02 250.252 905.614 251.859C911.13 266.794 919.598 277.888 930.311 285.477C940.958 293.02 953.235 296.691 965.805 297.786C990.649 299.951 1017.88 292.179 1040.29 282.366C1107.1 253.109 1154.45 182.79 1181.26 120.784C1181.46 120.318 1181.67 119.829 1181.89 119.321L1182.22 118.558C1184.13 114.169 1186.64 108.39 1189.27 101.77C1276.09 102.672 1360.58 54.9691 1418.02 -4.65696C1446.73 -34.4612 1470.78 -68.2262 1492.97 -102.205C1501.77 -115.686 1508.89 -128.063 1513.82 -144.059ZM1183.03 52.4281C1181.7 61.7643 1178.87 71.7518 1175.62 81.1622C1167.97 80.5782 1160.33 79.5652 1152.73 78.0954C1143.46 76.3035 1130.74 71.6548 1122.4 64.9126C1118.29 61.5978 1115.92 58.3215 1114.97 55.3083C1114.13 52.6247 1114.07 49.1459 1116.64 44.2949C1120.24 37.5056 1127.02 31.5633 1135.67 27.2408C1144.28 22.9377 1153.95 20.6513 1162.27 20.5764C1174.12 20.4697 1178.69 24.3296 1180.93 28.2748C1183.76 33.2617 1184.61 41.3912 1183.03 52.4281ZM623.444 289.1C628.141 286.195 629.594 280.032 626.688 275.335C623.783 270.638 617.62 269.186 612.923 272.091C604.048 277.581 595.248 283.081 586.489 288.556C534.623 320.974 484.175 352.506 427.888 375.744C397.509 388.285 366.779 396.108 336.745 388.124C324.919 384.981 314.55 379.178 303.782 372.169C300.885 370.284 297.895 368.263 294.82 366.185L294.818 366.183C286.878 360.817 278.376 355.072 269.479 350.305C241.618 335.379 213.019 347.015 191.872 360.283C143.172 390.837 109.697 435.291 79.4228 480.699C73.2337 489.982 67.1905 499.28 61.1851 508.521L61.1823 508.525C37.4805 544.995 14.3653 580.562 -14.821 610.701C-67.1237 664.709 -126.805 712.445 -200.293 722.031C-205.77 722.745 -209.63 727.764 -208.916 733.24C-208.202 738.717 -203.183 742.577 -197.706 741.863C-117.146 731.355 -53.4057 679.293 -0.453836 624.614C30.2175 592.942 54.6709 555.292 78.468 518.651C84.3452 509.602 90.1824 500.614 96.0633 491.794C126.099 446.745 157.621 405.382 202.501 377.225C222.479 364.691 242.338 358.455 260.035 367.935C267.976 372.189 275.133 377.028 282.725 382.16L282.726 382.161C285.995 384.371 289.345 386.636 292.872 388.932C304.202 396.306 316.691 403.488 331.607 407.453C368.157 417.169 404.019 407.235 435.52 394.23C493.485 370.3 545.513 337.769 597.316 305.379C606.022 299.935 614.723 294.495 623.444 289.1Z" fill="#0F4864"/>
</g>
<defs>
<clipPath id="clip0_3715_6128">
<rect width="1348" height="596" fill="white"/>
</clipPath>
</defs>
</svg>
