<svg width="474" height="622" viewBox="0 0 474 622" fill="none" xmlns="http://www.w3.org/2000/svg">
<g clip-path="url(#clip0_3724_4355)">
<path d="M-80.2817 311.235C-76.9264 234.818 -101.578 157.444 -83.303 81.6942C-46.7809 -69.6881 144.376 62.3143 211.406 116.135C274.32 166.65 328.913 227.613 377.084 292.166C383.416 300.652 430.577 357.928 410.891 372.618C390.577 387.776 338.739 361.317 317.961 356.723C266.418 345.326 214.902 355.931 172.979 388.613C149.522 406.899 111.462 441.428 114.403 475.243C116.948 504.495 156.439 500.898 176.297 495.307C204.478 487.374 228.614 466.81 244.904 443.004C250.289 435.135 254.698 426.707 257.892 417.728C258.041 417.31 258.662 411.722 260.592 412.903C273.281 420.669 285.109 446.108 292.903 457.343C322.424 499.896 349.928 545.371 388.754 580.313C428.101 615.723 476.994 638.561 519.274 670.088C551.982 694.478 578.583 724.033 604.871 754.896" stroke="#61175C" stroke-width="20" stroke-linecap="round"/>
</g>
<defs>
<clipPath id="clip0_3724_4355">
<rect width="474" height="622" fill="white"/>
</clipPath>
</defs>
</svg>
