<svg width="484" height="240" viewBox="0 0 484 240" fill="none" xmlns="http://www.w3.org/2000/svg">
<g clip-path="url(#clip0_3715_6134)">
<path fill-rule="evenodd" clip-rule="evenodd" d="M81.8776 50.3923C79.3094 39.5477 74.1647 28.6959 67.6542 20.0407C57.5359 6.58896 40.1274 -6.13888 20.5065 2.47515C6.61727 8.57288 0.844689 20.4741 0.0901195 33.2461C-0.624094 45.3349 2.99428 58.7896 7.84506 71.1625C17.6292 96.119 34.1869 120.985 41.7729 130.906C45.1277 135.293 51.4038 136.129 55.7909 132.775C60.178 129.42 61.0149 123.144 57.66 118.757C50.7662 109.742 35.347 86.5174 26.4652 63.8625C21.983 52.4297 19.5961 42.1985 20.0553 34.4256C20.4742 27.3358 23.0538 23.1994 28.5463 20.788C34.8243 18.0318 43.1525 20.7381 51.6711 32.0631C59.8852 42.9833 64.5 57.6166 63.5456 67.5428C63.1891 71.2505 64.9053 74.6797 67.747 76.6817C71.2389 79.4634 76.2975 79.6426 80.0174 76.8206L81.0279 76.0539C103.591 58.9324 123.803 43.5958 148.918 44.1245C158.084 44.3175 163.066 48.1015 165.79 52.9644C168.813 58.362 169.777 66.4972 167.506 75.8151C154.62 128.679 99.9305 164.213 47.0853 178.625C43.4984 179.603 40.9026 182.414 40.0323 185.773C39.5826 187.089 39.4019 188.521 39.5493 189.995C40.0989 195.491 44.9993 199.5 50.4947 198.951C52.254 198.775 54.263 198.205 55.5666 197.819C57.1415 197.351 58.9017 196.77 60.5633 196.2C63.0421 195.35 65.5959 194.422 67.1744 193.848L67.1756 193.848C67.6847 193.663 68.0923 193.514 68.3631 193.418C93.8394 184.319 118.507 177.578 144.694 174.429C150.095 173.779 157.934 173.762 165.154 175.33C172.626 176.953 177.541 179.833 179.819 183.347C182.447 187.399 183.868 191.951 184.998 197.555C185.326 199.186 185.663 201.153 186.029 203.287L186.029 203.289L186.029 203.29L186.029 203.29C186.754 207.518 187.59 212.399 188.695 216.618C191.235 226.318 197.429 232.68 205.23 236.147C212.539 239.395 220.864 239.963 228.37 239.555C243.001 238.758 258.442 233.954 266.338 231.497L266.955 231.305C270.767 230.12 274.506 228.917 278.185 227.734C301.065 220.373 321.621 213.76 343.118 216.831C343.481 216.883 343.843 216.915 344.201 216.927C350.976 218.164 356.122 219.837 361.439 221.567L361.44 221.567C364.368 222.519 367.348 223.488 370.68 224.41C379.724 226.914 389.502 228.248 400.986 223.69C421.113 215.702 438.442 204.83 454.754 193.43C461.035 189.041 467.034 184.675 472.969 180.356L472.97 180.355L472.97 180.355L472.971 180.354C482.814 173.19 492.483 166.153 502.981 159.344C507.614 156.338 508.934 150.146 505.928 145.512C502.923 140.879 496.73 139.559 492.097 142.565C481.256 149.596 470.693 157.276 460.471 164.709C454.632 168.954 448.903 173.119 443.298 177.037C427.492 188.082 411.631 197.948 393.608 205.101C387.791 207.41 382.92 207.046 376.016 205.135C374.132 204.614 371.891 203.892 369.367 203.08L369.366 203.079C363.275 201.118 355.544 198.629 347.25 197.154C346.739 197.064 346.231 197.013 345.728 197.001C319.348 193.298 293.941 201.555 271.439 208.868L271.434 208.87L271.43 208.871L271.427 208.872C267.883 210.023 264.411 211.152 261.019 212.206L260.999 212.212C252.898 214.73 239.402 218.925 227.283 219.584C221.215 219.915 216.523 219.28 213.353 217.871C210.675 216.681 208.927 214.93 208.042 211.551C207.111 207.994 206.593 204.9 206.01 201.409C205.619 199.071 205.198 196.556 204.604 193.604C203.27 186.987 201.222 179.593 196.6 172.466C190.097 162.437 178.943 157.859 169.398 155.786C159.601 153.658 149.475 153.709 142.306 154.572C140.637 154.772 138.974 154.986 137.318 155.214C160.847 135.976 179.485 111.124 186.937 80.5514C190.043 67.8065 189.392 54.1751 183.239 43.1909C176.787 31.6721 165.034 24.4593 149.339 24.1289C122.563 23.5652 100.54 36.7843 81.8776 50.3923Z" fill="#205A54"/>
</g>
<defs>
<clipPath id="clip0_3715_6134">
<rect width="484" height="240" fill="white"/>
</clipPath>
</defs>
</svg>
