<svg width="30" height="30" viewBox="0 0 30 30" fill="none" xmlns="http://www.w3.org/2000/svg">
<path d="M25.6437 17.8791L21.4797 20.2358L17.745 16.5244L21.5095 12.7833L25.6437 15.123C25.8877 15.2609 26.0907 15.4612 26.2319 15.7033C26.3732 15.9454 26.4476 16.2207 26.4476 16.501C26.4476 16.7813 26.3732 17.0566 26.2319 17.2987C26.0907 17.5409 25.8877 17.7411 25.6437 17.8791ZM3.66978 4.73153C3.5913 4.92306 3.55088 5.12805 3.55078 5.33504V27.666C3.55078 27.8965 3.59859 28.1112 3.68253 28.3035L15.5349 16.5233L3.66978 4.73153ZM16.6399 15.4258L20.1016 11.9853L5.91488 3.95695C5.61068 3.78252 5.25664 3.71553 4.90974 3.76676L16.6399 15.4258ZM16.6399 17.622L4.95224 29.2385C5.26887 29.2767 5.6025 29.2215 5.91488 29.0441L20.0719 21.0327L16.6399 17.622Z" fill="white"/>
</svg>
